<?xml version="1.0" encoding="utf-8"?>
<!-- Generator: Adobe Illustrator 27.7.0, SVG Export Plug-In . SVG Version: 6.00 Build 0)  -->
<svg version="1.1" id="Layer_1" xmlns="http://www.w3.org/2000/svg" xmlns:xlink="http://www.w3.org/1999/xlink" x="0px" y="0px"
	 viewBox="0 0 2000 2000" style="enable-background:new 0 0 2000 2000;" xml:space="preserve">
<style type="text/css">
	.st0{fill:#FFFFFF;}
	.st1{fill:#E2E2E2;}
	.st2{fill:#EA2A2A;}
	.st3{fill:#231F20;}
	.st4{fill:#CECECE;}
	.st5{fill:#919191;}
</style>
<g>
	<g>
		<path class="st0" d="M621.6,422.2c0.1-0.1,0.2-0.1,0.4-0.2C621.9,422.1,621.7,422.1,621.6,422.2
			C621.6,422.2,621.6,422.2,621.6,422.2z"/>
		<path class="st0" d="M899.1,366c0.2,0.1,0.4,0.3,0.6,0.4l0,0C899.5,366.3,899.3,366.2,899.1,366z"/>
		<path class="st0" d="M896.5,364.1C896.5,364.1,896.5,364.2,896.5,364.1C896.5,364.2,896.5,364.1,896.5,364.1L896.5,364.1z"/>
		<path class="st0" d="M832.7,347.8c0.2,0,0.4,0,0.5,0c1,0,2,0,3,0c-1,0-2.1,0-3.1,0C833,347.7,832.8,347.8,832.7,347.8z"/>
		<path class="st0" d="M623.3,421.4L623.3,421.4c-0.2,0.1-0.4,0.2-0.6,0.3C622.9,421.6,623.1,421.5,623.3,421.4z"/>
		<path class="st0" d="M901.9,368.3c-0.3-0.2-0.5-0.5-0.8-0.7l0,0c0,0,0,0,0,0c0.5,0.4,0.9,0.8,1.4,1.2
			C902.3,368.6,902.1,368.5,901.9,368.3L901.9,368.3z"/>
		<path class="st0" d="M897.4,364.8C897.4,364.8,897.4,364.8,897.4,364.8c-0.2-0.2-0.5-0.4-0.8-0.6
			C896.8,364.4,897.1,364.6,897.4,364.8z"/>
		<path class="st0" d="M898.9,365.9C898.9,365.9,898.9,365.9,898.9,365.9C898.9,365.9,898.9,365.9,898.9,365.9L898.9,365.9z"/>
		<path class="st0" d="M915,383.2c-0.1-0.1-0.1-0.2-0.2-0.2c0.1,0.1,0.2,0.3,0.3,0.4C915,383.3,915,383.3,915,383.2L915,383.2z"/>
		<path class="st0" d="M913.5,381c-0.2-0.4-0.5-0.7-0.8-1c0.3,0.4,0.6,0.8,0.9,1.2C913.6,381.1,913.5,381.1,913.5,381L913.5,381z"/>
		<path class="st0" d="M1589.3,1000.8l-57.2-15.5c12.2-66.3,14.6-108.6,14.9-113.7l1.8-35.6l1.1-20.9l-20.4-4.7l-34.8-8
			c-64.4-14.9-129.2-34.9-192.8-59.6v-188v-48.1l-39.4,27.7l-4.2,2.9c-13.5-22-30.6-42.3-50.8-60.7c-22.5-20.4-50.1-36.1-79.8-45.4
			c-25.9-8.1-52-12.2-77.8-12.2h-0.3l-0.3,0l-10.4,0.3c-26.1,0-43.6,4-66.5,12.3c-0.1-4.3-0.3-8.7-0.7-13.2
			c-2.1-22.6-8.8-42.6-19.9-59.6c-14.5-22.1-35.5-37.9-62.5-47c-16.4-5.5-34.8-8.2-56.2-8.2c-23.8,0-48.4,3.3-72.1,6.5
			c-21.6,2.9-43.9,5.9-63.2,5.9c-33.4,0-45.9-8.9-53.7-17.7l-26.2-29.4l-34-38.2l-9.3,50.3l-7.1,38.7c-0.2,0.8-0.4,2.1-0.6,3.8
			c-0.5,2.5-0.9,5.7-1.4,10.3c-0.6,5.7-1.3,14.6-1.3,24.7c0.1,15.3,1.8,28.9,5.2,40.7c-4,2.4-7.9,4.9-11.7,7.5
			c-23.6,16-43.7,35.4-59.8,57.7c-25.5,31.3-65.4,94.6-66.1,185.1l-185,12.3c0,0,77,85.9,265,104.4c10.9,1.1,20.2,1.6,28.3,1.7
			c9.8,0.8,19.6,1.3,29.3,1.3c25.6,0,48.3-3.2,67.2-9.6c24-8,45.4-18.9,63.6-32.3c16.1-11.9,30.2-26.1,42-42.3
			c21.2-29.3,31.6-60.2,39.9-85.1c4.6-13.8,8.8-25.8,12.9-33.1c0.7-1.2,2.9-5,4.4-5.5c0,0,0.3-0.1,0.8-0.1c0.9,0,2,0.2,3.1,0.6
			c5.8,2.1,11.5,4,17.1,5.5c-4.9,10.5-8.9,21.1-11.9,31.8c-11.6,40.9-14.7,80-9,116.5c1,6.1,2.2,12.2,3.6,18.2
			c-71.5,29.3-146.7,52.2-223.9,68.1l-35.8,7.4l-21,4.3l1.1,21.4l1.9,36.5c0.2,4.6,2.5,43.7,13.4,105.3
			c-10.8,5.4-20.4,12.1-28.7,19.9c-15.3,14.4-25.1,31.9-29.3,51.9c-8.6,41,2.7,68.7,13.6,84.8c3.9,5.7,8.1,10.4,12,14.2l-12.3,47.9
			l-4.6,18l15.9,9.6c1.3,0.8,2.6,1.6,3.9,2.3c-6.2,22-9.3,46.6-8.5,69.2c1.4,40.7,14.8,74.6,38.7,98.1
			c13.7,13.4,29.2,23.5,46.1,29.9c14.7,5.6,30.6,8.4,47.2,8.4c25.4,0,48.8-6.5,67.7-14.2c11.2,18.8,22.8,37.1,34.8,54.9
			c34.3,50.8,72.6,98.5,114,141.8v59.2v25h25h65.7c18.6,15.3,37.8,30,57.4,43.8l24.6,17.5l14.5,10.3l14.5-10.3l24.6-17.5
			c19.5-13.8,38.8-28.5,57.4-43.8h65.4h25v-25v-58.9c41.5-43.5,79.9-91.2,114.3-142.1c9.6-14.2,19-28.9,28.1-43.9
			c15.2,4.9,34.8,8.7,58.7,8.7c1.1,0,2.3,0,3.5,0c33.4-0.5,63.3-17.6,86.4-49.5c15.8-21.8,23-43,23.8-45.4l6.5-20l-0.2-0.1l0.5-0.1
			l2.9-18.1c6-37.6-4.4-65.4-14.2-82.1c-3.8-6.5-7.9-11.9-11.5-16.2l19.3-67l9.1,2.1l23,5.5l6.7-22.7l27-91.1l7.3-24.5
			L1589.3,1000.8z M1555.7,1116l-32.3-7.6l-30,104.1c0,0,38.5,28.5,29.2,87.1l-31.3,4.7l-33-18.6l-1.1,8.7l-55.7,64.5l34.2,52.2
			c-2.8,0.4-5.6,0.6-8.6,0.6c-1,0-2.1,0-3.1,0c-31.3,0-54.3-7.4-69.2-14.9c-12.2,20.9-25,41.3-38.4,61
			c-35.6,52.8-75.3,101.6-118.6,146v69h-74.4c-20.3,17-41.2,33.1-62.8,48.4l-24.6,17.5l-24.6-17.5c-21.6-15.3-42.5-31.4-62.8-48.4
			H874v-69.3c-43.2-44.3-82.7-93-118.3-145.7c-15.9-23.6-31.1-48.1-45.4-73.3c-15.9,8.6-45.3,21.6-77.8,21.6
			c-25,0-51.9-7.7-75.7-31.2c-43-42.2-34.7-120.1-16.8-162.1c0,0-3.5,0-21.8-11.1l16.5-63.9c0,0-42.6-21.5-29.5-84.2
			c6.6-31.3,31.5-51.7,61.8-61.6c-14-72.1-16.5-118.7-16.7-121.9l-1.9-36.5l35.8-7.4c100.7-20.8,185.1-50.6,249.2-78.3
			c-4.2-11.7-7.4-23.8-9.3-36.4c-5.1-32.8-2.3-68.4,8.4-105.8c5.7-19.9,15.3-39.8,27.9-58.4c-1,0-2,0.1-3,0.1
			c-13.7,0-28.9-3.1-45.4-9.2c-3.9-1.4-7.9-2.2-11.8-2.2c-2.7,0-5.3,0.4-7.7,1.1c-16.5,4.8-23.3,23-34,54.6
			c-16,47.8-38,113.3-129.8,144c-14.3,4.8-31.4,7.5-50.9,8.1c-11.1-19.4-51.5-46.8-85-67.3c43.3-27.3,69.6-75.1,83.4-107.8l0,0
			c-13.8,32.7-40.1,80.5-83.4,107.8c-14-8.6-26.9-15.9-35.9-20.9c-1.2-86.1,36.2-146.1,60.9-176.2c14.4-20.1,32.5-37.6,54-52.2
			c10-6.8,20.1-12.5,29.9-17.2c-19.4-27.8-10-82.9-9.9-82.9c0,0,0,0,0,0c0.2-1.6,0.3-2.7,0.4-3.1l7.1-38.7l26.2,29.4
			c16.1,18,38.4,26.1,72.4,26.1c21,0,44.1-3.1,66.5-6.1c22.9-3.1,46.6-6.3,68.8-6.3c18.7,0,34.5,2.3,48.3,6.9
			c21.5,7.2,38.2,19.7,49.5,37c8.9,13.5,14.2,29.8,15.9,48.2c2,21.9-1.6,41.8-3.8,51.2c9.2-5.1,18.6-9.5,28.3-13.3
			c25.2-9.7,41-14.4,67.9-14.4l10.7-0.3c23.2,0,46.9,3.7,70.4,11c26.2,8.2,50.6,22,70.4,40c24.5,22.2,40.9,44.9,51.9,64.8
			c0,0,4.3,7.6,7.1,13.9l27.1-19.1v205c59.4,23.8,131.4,48.3,212.2,67l34.8,8l-1.8,35.6c-0.2,3.4-3,54.6-18.9,133l79.7,21.6
			L1555.7,1116z"/>
		<path class="st0" d="M905.4,371.5c0.1,0,0.1,0.1,0.2,0.1C905.5,371.6,905.4,371.5,905.4,371.5
			C905.4,371.5,905.4,371.5,905.4,371.5z"/>
		<path class="st0" d="M905.5,371.6c0.6,0.6,1.2,1.2,1.8,1.8c-0.3-0.3-0.6-0.6-0.9-0.9C906.1,372.2,905.8,371.9,905.5,371.6z"/>
		<path class="st0" d="M903.3,369.5L903.3,369.5c0.3,0.2,0.5,0.5,0.8,0.7c0,0,0,0,0,0C903.8,370,903.5,369.7,903.3,369.5z"/>
		<path class="st0" d="M616.2,424.5c0.1,0,0.2-0.1,0.2-0.1l0,0C616.4,424.5,616.3,424.5,616.2,424.5z"/>
		<path class="st0" d="M592,437.3c0.1,0,0.1-0.1,0.2-0.1l0,0C592.1,437.2,592,437.3,592,437.3z"/>
		<path class="st0" d="M580,539.8c-2.7,1.9-5.3,3.9-7.8,5.9C574.7,543.7,577.3,541.7,580,539.8z"/>
		<path class="st0" d="M584.3,547.7c2.1-6.1,3.4-10.6,4-12.6C587.7,537.2,586.4,541.6,584.3,547.7
			C584.3,547.7,584.3,547.7,584.3,547.7z"/>
		<path class="st0" d="M588.6,534L588.6,534c-2.9,1.9-5.8,3.8-8.6,5.9C582.8,537.8,585.6,535.9,588.6,534z"/>
		<path class="st0" d="M587.3,440.2c-0.2,0.1-0.3,0.2-0.5,0.3C587,440.4,587.2,440.3,587.3,440.2L587.3,440.2z"/>
		<path class="st0" d="M560.6,460.5L560.6,460.5c-0.2,0.2-0.5,0.4-0.7,0.6C560.1,460.9,560.4,460.7,560.6,460.5z"/>
		<path class="st0" d="M600.1,432.6c0.5-0.3,1-0.6,1.5-0.8C601.1,432.1,600.6,432.3,600.1,432.6
			C600.1,432.6,600.1,432.6,600.1,432.6z"/>
		<path class="st0" d="M617,424.2c0.5-0.2,1.1-0.5,1.6-0.7C618.1,423.7,617.6,423.9,617,424.2L617,424.2z"/>
		<path class="st0" d="M618.8,423.4L618.8,423.4c0,0-0.1,0-0.1,0.1C618.7,423.4,618.7,423.4,618.8,423.4z"/>
		<path class="st0" d="M620.3,422.7c0.3-0.1,0.5-0.2,0.8-0.3c0,0,0,0,0,0C620.8,422.5,620.5,422.6,620.3,422.7z"/>
		<path class="st0" d="M619.3,423.1c0.3-0.1,0.6-0.3,0.9-0.4C620,422.9,619.7,423,619.3,423.1C619.3,423.1,619.3,423.1,619.3,423.1z
			"/>
		<polygon class="st0" points="611.1,327.6 611.1,327.6 611.1,327.6 		"/>
		<path class="st0" d="M916.3,385.4L916.3,385.4C916.3,385.4,916.3,385.4,916.3,385.4C916.3,385.4,916.3,385.4,916.3,385.4z"/>
		<path class="st0" d="M925.8,410.3L925.8,410.3C925.8,410.3,925.8,410.3,925.8,410.3C925.8,410.3,925.8,410.3,925.8,410.3z"/>
		<path class="st0" d="M928.1,429.3L928.1,429.3c0-0.1,0-0.3,0-0.4c0-0.5,0-1.1-0.1-1.6c0.1,1.4,0.1,2.9,0.1,4.3c0-0.2,0-0.4,0-0.5
			C928.1,430.5,928.1,429.9,928.1,429.3z"/>
		<path class="st0" d="M951.8,489.5c0.8-0.4,1.5-0.9,2.3-1.3C953.3,488.6,952.5,489,951.8,489.5
			C951.8,489.5,951.8,489.5,951.8,489.5z"/>
		<path class="st0" d="M928.1,431.7c0,0.1,0,0.3,0,0.4C928.1,431.9,928.1,431.8,928.1,431.7L928.1,431.7z"/>
		<path class="st0" d="M925.9,410.6c0.1,0.4,0.2,0.8,0.2,1.2c0-0.2-0.1-0.4-0.1-0.6C925.9,411,925.9,410.8,925.9,410.6z"/>
		<path class="st0" d="M927,417C927,417,927,417,927,417C927,417,927,417,927,417L927,417z"/>
		<path class="st0" d="M926.7,415.1c0-0.2-0.1-0.5-0.1-0.7c0,0,0,0,0,0c-0.1-0.6-0.2-1.1-0.3-1.7l0,0c-0.1-0.3-0.1-0.6-0.2-1
			c0.3,1.7,0.6,3.4,0.9,5.1C926.9,416.3,926.8,415.7,926.7,415.1L926.7,415.1z"/>
		<path class="st0" d="M1048.8,463.6c0.4,0,0.7,0,1.1,0c3,0,6,0.1,9,0.2c-3-0.1-6.1-0.2-9.1-0.2
			C1049.6,463.6,1049.2,463.6,1048.8,463.6z"/>
		<path class="st0" d="M1134.5,481.3c-3.7-1.7-7.4-3.2-11.2-4.6C1127.1,478.1,1130.8,479.7,1134.5,481.3z"/>
		<path class="st0" d="M1336.5,827.2c-7-2.4-14-4.8-20.9-7.3C1322.5,822.4,1329.4,824.8,1336.5,827.2z"/>
		<path class="st0" d="M1107.5,471.6c-3.7-1-7.4-2-11.1-2.8C1100.1,469.7,1103.8,470.6,1107.5,471.6z"/>
		<path class="st0" d="M1070.7,464.6c-3.5-0.4-6.9-0.6-10.4-0.8C1063.7,464,1067.2,464.3,1070.7,464.6z"/>
		<path class="st0" d="M927.6,422.3c-0.2-1.6-0.3-3.3-0.6-4.9C927.3,419,927.5,420.7,927.6,422.3z"/>
		<path class="st0" d="M915.9,384.7c-0.3-0.5-0.6-0.9-0.9-1.4c0.4,0.7,0.9,1.4,1.3,2C916.2,385.2,916.1,385,915.9,384.7
			C915.9,384.7,915.9,384.7,915.9,384.7z"/>
		<path class="st0" d="M914.5,382.5c-0.3-0.4-0.6-0.9-0.9-1.3c0.4,0.6,0.8,1.2,1.2,1.8C914.7,382.8,914.6,382.6,914.5,382.5
			L914.5,382.5z"/>
		<path class="st0" d="M910,376.5c-0.1-0.1-0.2-0.2-0.2-0.3c0.1,0.1,0.2,0.3,0.4,0.4C910.1,376.6,910,376.5,910,376.5
			C910,376.5,910,376.5,910,376.5z"/>
		<path class="st0" d="M910.1,376.6c0.4,0.4,0.7,0.9,1,1.3c-0.1-0.1-0.2-0.3-0.3-0.4C910.6,377.2,910.3,376.9,910.1,376.6z"/>
		<path class="st0" d="M907.9,374.1c-0.1-0.1-0.2-0.2-0.4-0.4c0,0,0,0,0,0c0.5,0.6,1.1,1.2,1.6,1.8
			C908.7,375,908.3,374.5,907.9,374.1L907.9,374.1z"/>
		<path class="st0" d="M909.1,375.5c0.2,0.2,0.4,0.5,0.6,0.7c-0.1-0.1-0.2-0.3-0.3-0.4C909.3,375.7,909.2,375.6,909.1,375.5z"/>
		<path class="st0" d="M925.7,409.8c-0.4-1.7-0.8-3.4-1.2-5C924.9,406.5,925.4,408.2,925.7,409.8z"/>
		<path class="st0" d="M917.4,387.2c0,0.1,0.1,0.2,0.2,0.3C917.5,387.4,917.4,387.3,917.4,387.2L917.4,387.2z"/>
		<path class="st0" d="M923,400c-0.3-0.9-0.6-1.8-0.9-2.7c0.4,1.1,0.8,2.2,1.1,3.2C923.1,400.4,923.1,400.2,923,400L923,400z"/>
		<path class="st0" d="M923.8,402.4L923.8,402.4c-0.1-0.2-0.1-0.3-0.2-0.5c0,0,0,0,0,0c0-0.1-0.1-0.3-0.1-0.4c0.3,1.1,0.7,2.2,1,3.2
			C924.2,404,924,403.2,923.8,402.4C923.8,402.4,923.8,402.4,923.8,402.4z"/>
		<path class="st0" d="M920.9,394.6c0,0.1,0.1,0.2,0.1,0.3C921,394.7,921,394.7,920.9,394.6L920.9,394.6z"/>
		<path class="st0" d="M919.9,392.2L919.9,392.2C919.9,392.2,919.9,392.2,919.9,392.2c-0.4-0.8-0.7-1.5-1.1-2.3
			c0.5,1,0.9,1.9,1.4,2.9c0,0,0,0,0,0C920.1,392.6,920,392.4,919.9,392.2z"/>
	</g>
	<g>
		<g>
			<path class="st1" d="M1035.1,683.3c0,0-161.9,125.7-443.3,183.8c0,0,26.5,522.9,443.3,818.4c416.8-295.5,443.3-818.4,443.3-818.4
				C1211,805.2,1035.1,683.3,1035.1,683.3z"/>
		</g>
		<g>
			<path class="st2" d="M591.8,867.1c0,0,26.5,522.9,443.3,818.4V683.3C1035.1,683.3,873.2,809,591.8,867.1z"/>
		</g>
		<path class="st3" d="M1035.1,683.3c0,0,175.9,121.9,443.3,183.8c0,0-26.5,522.9-443.3,818.4C618.3,1390,591.8,867.1,591.8,867.1
			C873.2,809,1035.1,683.3,1035.1,683.3 M1033.6,630.4l-24.6,19.2c-1.3,1-40.7,30.9-111.8,67.1c-66.3,33.7-174.5,79.9-314,108.7
			l-35.8,7.4l1.9,36.5c0.3,5.6,7.6,138.8,67.7,310.3c35.3,100.8,81.6,194.1,137.7,277.2c70.4,104.4,156.5,193.1,255.8,263.5
			l24.6,17.5l24.6-17.5c99.3-70.4,185.3-159,255.8-263.5c56.1-83.2,102.4-176.4,137.7-277.2c60.1-171.5,67.4-304.7,67.7-310.3
			l1.8-35.6l-34.8-8c-133.3-30.8-242.6-77.3-310.9-110.9c-74.2-36.5-117.4-66.1-117.8-66.4L1033.6,630.4L1033.6,630.4z"/>
		<g>
			<path class="st3" d="M1035.1,756c0,0-137.6,106.8-376.8,156.2c0,0,22.5,444.4,376.8,695.7c354.3-251.2,376.8-695.7,376.8-695.7
				C1184.6,859.6,1035.1,756,1035.1,756z"/>
		</g>
		<path class="st3" d="M1409.7,977.2l172,46.7l-27,91.1l-32.3-7.6l-30,104.1c0,0,38.5,28.5,29.2,87.1l-52.4,7.9l-0.5,2.9l42.2,39.6
			c0,0-38.4,60.5-84.7,61.7c-63.1,1.6-93.4-29-93.4-29s-386.2-84.9-611.1-5.5c0,0-95.8,66.6-165.8-2.2
			c-43-42.2-34.7-120.1-16.8-162.1c0,0-3.5,0-21.8-11.1l16.5-63.9c0,0-42.6-21.5-29.5-84.2c13.1-62.7,99.9-81.7,155.4-59.6
			C659.6,993.2,886.6,904.6,1409.7,977.2z"/>
		<g>
			<g>
				<path class="st2" d="M922,471c0,0,28.2-92.8-47.8-118.3c-76-25.5-201.4,44.5-264.2-26c0,0-10.3,55.7,69.4,77.9
					c0,0-199.7,21-183.9,239.1c0,0,29.3-70.3,92.1-110.6c0,0-42.6,164.3-169.3,164c0,0,131.2,43.8,203.3,19.6
					C761.5,669.7,720,537,786,517.7c10.4-3,21.5-2.2,31.6,1.5c67.5,25,81.7-16.6,81.7-16.6L922,471z"/>
				<path class="st3" d="M610.1,326.6c22.6,25.3,53.2,32.5,86.8,32.5c44,0,93.1-12.4,135.3-12.4c15.1,0,29.3,1.6,42.1,5.9
					C950.2,378.1,922,471,922,471l-22.7,31.7c0,0-8.4,24.6-43,24.6c-10.4,0-23.1-2.2-38.7-8c-5.9-2.2-12.2-3.4-18.5-3.4
					c-4.4,0-8.9,0.6-13.1,1.8c-66,19.2-24.6,151.9-164.5,198.8c-15.6,5.2-33.9,7.3-53.1,7.3c-69.6,0-150.2-26.9-150.2-26.9
					c0.1,0,0.2,0,0.3,0c126.4,0,169-164,169-164c-62.8,40.3-92.1,110.6-92.1,110.6c-15.7-218.1,183.9-239.1,183.9-239.1
					C599.8,382.3,610.1,326.6,610.1,326.6 M598.3,284.4l-7.1,38.7c-0.4,2-3.4,20.4,6.2,41.9c4.6,10.4,12.7,22.7,27,33.9
					c-16.4,6.1-35,14.9-53.4,27.4c-30.6,20.7-54.3,47.4-70.3,79.2c-19.9,39.2-28,86.2-24.1,139.4l1.2,16.9
					c-18.2,10.5-37.9,15.8-58.9,15.8l-0.3,0l-119.4-0.2l113.3,37.8c3.4,1.1,84.4,27.9,156.3,27.9c22.9,0,42.9-2.8,59.2-8.3
					c91.8-30.7,113.7-96.2,129.8-144c10.6-31.6,17.4-49.8,34-54.6c2.4-0.7,5.1-1.1,7.7-1.1c3.9,0,7.9,0.7,11.8,2.2
					c16.5,6.1,31.7,9.2,45.4,9.2c24.2,0,39.4-9.6,47.8-17.6c6.6-6.3,10.3-12.8,12.1-16.7l21.5-30l1.9-2.6l0.9-3
					c0.3-1.1,8.1-27.2,5.3-57c-1.7-18.5-7.1-34.7-15.9-48.2c-11.3-17.3-28-29.7-49.5-37c-13.8-4.6-29.6-6.9-48.3-6.9
					c-22.2,0-45.9,3.2-68.8,6.3c-22.4,3-45.5,6.1-66.5,6.1c-34,0-56.3-8-72.4-26.1L598.3,284.4L598.3,284.4z"/>
			</g>
			<g>
				<path class="st4" d="M1085.4,917.2l-227.8-48.3l59.4-45.1c0,0-109.9-61.9-66.6-213.6c23.7-83,128.7-179.5,263.1-137.6
					c23.3,7.3,44.9,19.4,63,35.8c60.6,55.1,67.4,112.8,67.4,112.8L1085.4,917.2z"/>
				<path class="st3" d="M1048.9,462.6c20.5,0,42.1,3.1,64.5,10.1c23.3,7.3,44.9,19.4,63,35.8c60.6,55.1,67.4,112.8,67.4,112.8
					l-158.5,295.9l-227.8-48.3l59.4-45.1c0,0-109.9-61.9-66.6-213.6C870.1,541.1,946.3,462.6,1048.9,462.6 M1048.9,442.9v19.7V442.9
					c-26.9,0-53.4,4.9-78.6,14.7c-23,8.9-44.6,21.6-64.3,37.7c-36,29.7-63.2,69.6-74.6,109.6c-10.7,37.4-13.5,72.9-8.4,105.8
					c4.2,26.7,13.5,51.6,27.8,73.9c11,17.1,23.2,30.1,33.5,39.3l-38.7,29.4l-34.3,26l42.2,8.9l227.8,48.3l14.5,3.1l7-13l158.5-295.9
					l2.9-5.5l-0.7-6.1c-0.3-2.7-8.4-65.7-73.7-125.1c-19.8-18-44.2-31.8-70.4-40C1095.9,446.6,1072.2,442.9,1048.9,442.9
					L1048.9,442.9z"/>
			</g>
			<path class="st0" d="M1241.6,558.7c0,0,10,17.8,9.3,21.4s-13.9-1.6-13.9-1.6L1241.6,558.7z"/>
			<polygon class="st0" points="981.8,741.4 1241.6,558.7 1242.7,792.4 1070.4,751.6 1070.4,792.4 1198.4,818.9 1143,909.6 
				1163.1,939.5 1032.8,917.1 			"/>
			<path class="st3" d="M1049.8,922.3c0,0-6.4-134.9-44.7-163.2c-38.3-28.3-80.8-62.7-56.9-141.6c26.1-86.1,175.6-92.9,175.6-92.9
				c-93.5-81.1-204.4-24.8-204.4-24.8c-28.9,20.4-71.1,73.2-83.1,114.2c-26.5,90.3-2.9,137.5,23.7,177.7l37.7,40.4l-53.8,48
				L1049.8,922.3z"/>
			<g>
				<polygon class="st4" points="1005.1,755.9 1266,572.5 1266,806.9 1093.7,766.1 1093.7,806.9 1221.7,833.4 1166.3,924.1 
					1184.5,953.5 1056.2,929.2 				"/>
				<path class="st3" d="M1204.6,967.3l-156.2-29.6l-54.8-185.8l282.2-198.4v265.8l-172.3-40.8v20.3l133.8,27.7l-59.5,97.5
					L1204.6,967.3z M1063.9,920.6l100.5,19l-9.6-15.5l51.2-83.9l-122.1-25.3v-61.2l172.3,40.8V591.5l-239.6,168.4L1063.9,920.6z"/>
			</g>
			<polygon class="st3" points="1212.6,794.3 1237.4,826.6 1093.7,806.9 1093.7,766.1 			"/>
			<path class="st5" d="M1064.2,815.7l19.1-1.7l124,25.3l-52.3,85.1l9.4,15.1l-100.2-18.8l-17.8-59.8c0,0-0.8-24.8,3.1-35.7
				L1064.2,815.7z"/>
			<polygon class="st3" points="1148.6,903.9 1135.6,901.7 1171.7,840.2 1184.5,842.7 			"/>
			<polygon class="st3" points="1132.9,882.1 1120,879.8 1140.6,844.6 1153.4,847.1 			"/>
			<polygon class="st3" points="1005.1,755.9 1029.3,838.1 1064.2,815.7 1064.2,755.9 			"/>
			<path class="st3" d="M1118.4,682.8l-113.3,73.2l53.1,12.8C1058.2,768.7,1040.8,743.2,1118.4,682.8z"/>
			<path class="st3" d="M1049.9,824c0,0-11.2,35.4,6,87l-34.4-87H1049.9z"/>
			<path class="st3" d="M891.6,536.8c0,0-30.1-26,7.7-53.3c35.1-25.3,49.9,8.1,49.9,8.1L891.6,536.8z"/>
			<path class="st0" d="M610.1,326.6c0,0-9.3,50.4,58.4,74.4l0,0c57.5,8.3,92-28.1,165.8-14c85.8,17.6,87.4,80.4,87.4,80.4l1.7-1.4
				c0,0,0,0,0,0c0.1-0.2,0.1-0.5,0.2-0.7c0-0.1,0-0.2,0.1-0.3c0-0.2,0.1-0.5,0.2-0.7c0-0.1,0.1-0.3,0.1-0.5c0-0.2,0.1-0.5,0.1-0.7
				c0-0.2,0.1-0.3,0.1-0.5c0-0.2,0.1-0.5,0.1-0.7c0-0.2,0.1-0.4,0.1-0.6c0-0.2,0.1-0.4,0.1-0.7c0.1-0.3,0.1-0.7,0.2-1.1
				c0-0.2,0.1-0.4,0.1-0.6c0.1-0.4,0.1-0.8,0.2-1.1c0-0.2,0.1-0.4,0.1-0.6c0.1-0.3,0.1-0.7,0.2-1c0-0.2,0.1-0.4,0.1-0.6
				c0.1-0.3,0.1-0.7,0.2-1c0-0.2,0.1-0.4,0.1-0.7c0.1-0.4,0.1-0.7,0.2-1.1c0-0.2,0.1-0.4,0.1-0.6c0.1-0.4,0.1-0.8,0.2-1.2
				c0-0.2,0-0.4,0.1-0.6c0.1-0.6,0.1-1.2,0.2-1.8v0c0.1-0.6,0.1-1.3,0.2-1.9c0-0.1,0-0.3,0-0.4c0-0.5,0.1-1,0.1-1.6
				c0-0.2,0-0.4,0-0.6c0-0.5,0.1-1,0.1-1.4c0-0.2,0-0.4,0-0.7c0-0.5,0.1-1,0.1-1.4c0-0.2,0-0.4,0-0.6c0-0.5,0.1-1,0.1-1.6
				c0-0.2,0-0.4,0-0.5c0-0.7,0-1.4,0.1-2c0,0,0-0.1,0-0.1c0-0.8,0-1.5,0-2.3c0-0.1,0-0.1,0-0.2c0-0.7,0-1.4,0-2c0-0.2,0-0.4,0-0.5
				c0-0.6,0-1.1,0-1.7c0-0.2,0-0.4,0-0.7c0-0.5,0-1.1-0.1-1.7c0-0.2,0-0.5,0-0.7c0-0.6-0.1-1.1-0.1-1.7c0-0.2,0-0.4,0-0.6
				c0-0.7-0.1-1.4-0.2-2.1c0-0.1,0-0.2,0-0.3c-0.1-1.6-0.3-3.2-0.6-4.8c0-0.2-0.1-0.4-0.1-0.5c-0.1-0.6-0.2-1.2-0.3-1.8
				c0-0.2-0.1-0.5-0.1-0.7c-0.1-0.6-0.2-1.1-0.3-1.7c0-0.2-0.1-0.5-0.1-0.7c-0.1-0.6-0.2-1.2-0.3-1.7c0-0.2-0.1-0.5-0.1-0.7
				c-0.1-0.6-0.3-1.3-0.4-1.9c0-0.2-0.1-0.3-0.1-0.5c-0.4-1.6-0.8-3.2-1.3-4.8c-0.1-0.2-0.1-0.3-0.2-0.5c-0.2-0.6-0.4-1.2-0.6-1.9
				c-0.1-0.2-0.2-0.5-0.2-0.7c-0.2-0.6-0.4-1.1-0.6-1.7c-0.1-0.3-0.2-0.5-0.3-0.8c-0.2-0.5-0.4-1.1-0.6-1.6
				c-0.1-0.2-0.2-0.5-0.3-0.7c-0.2-0.6-0.5-1.1-0.7-1.7c-0.1-0.2-0.2-0.4-0.3-0.6c-0.7-1.5-1.5-3.1-2.3-4.6
				c-0.1-0.2-0.2-0.3-0.3-0.5c-0.3-0.6-0.7-1.2-1-1.8c-0.1-0.2-0.3-0.5-0.4-0.7c-0.3-0.5-0.6-1-0.9-1.5c-0.2-0.3-0.3-0.5-0.5-0.8
				c-0.3-0.5-0.6-1-1-1.4c-0.2-0.2-0.3-0.5-0.5-0.7c-0.4-0.5-0.7-1-1.1-1.5c-0.2-0.2-0.3-0.4-0.5-0.7c-0.4-0.6-0.9-1.1-1.4-1.7
				c-0.1-0.1-0.2-0.2-0.3-0.4c-0.6-0.7-1.2-1.4-1.8-2c-0.1-0.1-0.2-0.3-0.4-0.4c-0.5-0.5-1-1.1-1.5-1.6c-0.2-0.2-0.4-0.4-0.7-0.6
				c-0.4-0.4-0.9-0.9-1.3-1.3c-0.3-0.2-0.5-0.5-0.8-0.7c-0.4-0.4-0.9-0.8-1.3-1.2c-0.3-0.2-0.5-0.5-0.8-0.7c-0.5-0.4-1-0.8-1.4-1.2
				c-0.3-0.2-0.5-0.4-0.8-0.6c-0.6-0.4-1.1-0.8-1.7-1.3c-0.2-0.2-0.4-0.3-0.7-0.5c-0.8-0.6-1.6-1.1-2.5-1.7
				c-0.1-0.1-0.3-0.2-0.4-0.2c-0.7-0.5-1.5-0.9-2.2-1.3c-0.3-0.2-0.6-0.3-0.9-0.5c-0.6-0.3-1.2-0.7-1.8-1c-0.4-0.2-0.7-0.4-1.1-0.6
				c-0.6-0.3-1.2-0.6-1.8-0.9c-0.4-0.2-0.8-0.4-1.2-0.5c-0.6-0.3-1.2-0.6-1.9-0.8c-0.4-0.2-0.8-0.3-1.2-0.5
				c-0.7-0.3-1.4-0.6-2.1-0.9c-0.3-0.1-0.7-0.3-1-0.4c-1.1-0.4-2.2-0.8-3.3-1.2C798.3,327.1,672.9,397.1,610.1,326.6z"/>
			<g>
				<path class="st3" d="M627.8,393.5c3.7,0,7.1,0.1,10.6,0.2c3.5,0.1,6.9,0.3,10.4,0.5c3.5,0.2,6.9,0.5,10.4,0.7l10.3,0.9
					c13.8,1.4,27.4,3.3,41,5.7c3.4,0.6,6.8,1.2,10.2,1.9l10.1,2.1c1.7,0.3,3.4,0.8,5,1.2l5,1.2l5,1.2c1.7,0.4,3.3,0.9,5,1.4l9.9,2.8
					c3.3,1,6.5,2.1,9.8,3.2l4.9,1.6l4.8,1.8l9.6,3.6L780,421l-4.9-1.4l-5-1.2c-3.3-0.8-6.6-1.6-10-2.3l-10-1.9
					c-1.7-0.3-3.3-0.7-5-0.9l-5.1-0.8l-5-0.8c-1.7-0.3-3.4-0.5-5.1-0.7l-10.1-1.2c-3.4-0.4-6.8-0.7-10.1-1
					c-13.5-1.2-27.1-1.9-40.7-2.1l-10.2,0c-3.4,0.1-6.8,0.1-10.1,0.2c-3.4,0.1-6.8,0.2-10.1,0.4c-3.3,0.2-6.8,0.4-9.9,0.7
					L627.8,393.5z"/>
			</g>
			<path class="st3" d="M819.3,508.4c0,0-105.9-24.9-187.9,72.7c0,0,44.3-6.3,75.2,10.2c0,0,26.4-4.3,39.9-20.3
				C764.4,549.6,782.3,510.4,819.3,508.4z"/>
			<path class="st3" d="M590.6,324.9c0,0-11.8,70.2,18.1,92.7l48.6-14C657.3,403.7,592.9,364.4,590.6,324.9z"/>
			<g>
				<path class="st3" d="M545.6,573c0.7-0.9,1.1-1.5,1.7-2.2l1.6-2c1.1-1.3,2.2-2.6,3.3-3.8c2.2-2.5,4.5-5,6.8-7.4
					c4.6-4.8,9.4-9.4,14.3-13.8c9.9-8.7,20.5-16.7,31.9-23.4c5.7-3.3,11.6-6.3,17.7-8.8c6.1-2.5,12.3-4.6,18.7-6.1
					c6.4-1.4,12.9-2.3,19.3-2.5c6.5-0.2,12.9,0.5,19.1,1.6c-6.4-0.1-12.7,0.3-18.8,1.4c-6.1,1.2-12.1,3-17.8,5.3
					c-5.7,2.4-11.2,5.2-16.4,8.4c-5.2,3.2-10.2,6.9-14.9,10.7c-9.5,7.8-18,16.6-25.8,26c-3.9,4.7-7.6,9.6-11,14.6
					c-1.7,2.5-3.4,5-5,7.6c-0.8,1.3-1.6,2.5-2.3,3.8l-1.1,1.9c-0.3,0.6-0.7,1.3-1,1.8L545.6,573z"/>
			</g>
			<g>
				<path class="st3" d="M937,477.8l-4.2,0.7c-0.7,0.1-1.4,0.2-2.1,0.3l-2.1,0.2c-1.4,0.1-2.8,0.3-4.2,0.3l-4.2,0.1
					c-5.5,0-11-0.3-16.4-1.2c-5.3-0.8-10.5-2-15.6-3.5c-5-1.5-9.9-3.3-14.6-5.4c-4.7-2.1-9.2-4.4-13.6-6.9
					c-4.4-2.5-8.6-5.3-12.7-8.1c-8.1-5.8-15.8-12.1-22.6-19.2c8.2,5.4,16.9,9.7,25.8,13.4c4.4,1.8,8.9,3.4,13.5,4.8
					c4.5,1.4,9.1,2.5,13.7,3.4c4.6,0.9,9.2,1.5,13.7,1.8c4.5,0.3,9,0.3,13.4,0c4.4-0.3,8.7-1.1,12.8-2l3.1-0.8c1-0.3,2-0.7,3-1
					l1.5-0.5c0.5-0.2,1-0.4,1.5-0.6l2.9-1.2L937,477.8z"/>
			</g>
			<path class="st3" d="M537.8,456.3c0,0-97.1,81.7-79.9,229.2l26.6-20.3C484.6,665.2,450.8,605.1,537.8,456.3z"/>
			<path class="st3" d="M746.5,563.8c0,0-69,15.5-94.3,55.5c0,0,67.5-13,85.7,0C733.3,613,746.5,563.8,746.5,563.8z"/>
			<path class="st3" d="M418.3,696.9c0,0,208,41.8,291.9-100c0,0,36.8-7.3,29.9,10.2c-12.1,31-66.4,104.1-118.2,116.3
				C540.8,742.6,438.2,711.6,418.3,696.9z"/>
			<path class="st3" d="M884.7,496.4c0,0,11.2,16.6-81.6,11.2l-20.8,9.5l35.3,2.2l25,10.7h43.5L884.7,496.4z"/>
			<polygon class="st3" points="1256.8,796.9 1217.3,612.6 1266,577 			"/>
			<path class="st0" d="M501.4,558.9c-0.2,1-0.5,2-0.7,3C540.2,481.1,603.2,435,636,415.2C590.5,431.1,522.9,469.3,501.4,558.9z"/>
			<g>
				<path class="st0" d="M993.9,751c-1.1-0.7-1.9-1.2-2.7-1.7c-0.8-0.6-1.6-1.1-2.4-1.7c-1.6-1.1-3.1-2.3-4.6-3.5
					c-3-2.4-5.9-4.9-8.7-7.4c-5.6-5.2-10.7-10.8-15.3-16.9c-9.2-12.1-16-26.1-19.2-40.8c-0.3-1.9-0.8-3.7-1-5.5l-0.7-5.6
					c-0.2-3.7-0.5-7.4-0.3-11.1c0-3.7,0.5-7.4,0.8-11c0.3-1.8,0.6-3.6,0.9-5.4l0.5-2.7l0.7-2.7c3.5-14.2,9.4-27.4,16.8-39.6
					c-5.9,13-10.1,26.6-11.8,40.5l-0.3,2.6l-0.1,2.6c-0.1,1.7-0.2,3.5-0.3,5.2c0.1,3.5,0,6.9,0.5,10.3c0.2,3.4,0.9,6.8,1.5,10.1
					l1.2,4.9c0.4,1.6,1,3.2,1.5,4.8c4.4,12.7,11.8,24.1,21,33.7c4.6,4.8,9.7,9.1,15,13.1c2.7,1.9,5.4,3.8,8.2,5.5
					c1.4,0.9,2.8,1.7,4.2,2.4c0.7,0.4,1.4,0.7,2.1,1.1c0.7,0.3,1.5,0.7,1.9,0.9L993.9,751z"/>
			</g>
			<polygon class="st0" points="1218.4,618.1 1256.3,794.7 1202,629.5 			"/>
		</g>
		<g>
			<g>
				<path class="st2" d="M1000.2,1420.9c-28.4,0-51.5-23.1-51.5-51.5c0-28.4,23.1-51.6,51.5-51.6l72.4,0l0.2,0
					c27.5,1.3,49,23.9,49,51.4c0,13.8-5.3,26.7-15.1,36.5c-9.7,9.7-22.7,15.1-36.4,15.1c-12,0-23.5-4.1-32.7-11.7l-4.7,0
					C1023.7,1416.7,1012.3,1420.9,1000.2,1420.9L1000.2,1420.9z M1063.9,1379.6c-0.1,0-0.2,0.1-0.2,0.2c0,0.1,0.1,0.2,0.2,0.2
					c0.1,0,0.2-0.1,0.2-0.2C1064.1,1379.7,1064,1379.6,1063.9,1379.6z"/>
			</g>
			<g>
				<path class="st3" d="M1072.3,1327.4c22.2,1.1,39.9,19.4,39.9,41.8c0,23.1-18.7,41.9-41.9,41.9c0,0,0,0,0,0
					c-11.2,0-21.5-4.4-29-11.7l-12,0c-7.5,7.2-17.7,11.7-29,11.7c0,0,0,0,0,0c-23.1,0-41.9-18.7-41.9-41.9
					c0-23.1,18.7-41.9,41.9-41.9L1072.3,1327.4 M980.2,1377.9C980.2,1377.9,980.2,1377.9,980.2,1377.9l9.7,0l0,9.7
					c0,1.8,1.5,3.3,3.3,3.3c0,0,0,0,0,0l8.4,0c1.8,0,3.3-1.5,3.3-3.3l0-9.7l9.7,0c1.8,0,3.3-1.5,3.3-3.3l0-8.4
					c0-1.8-1.5-3.3-3.3-3.3c0,0,0,0,0,0l-9.7,0l0-9.7c0-1.8-1.5-3.3-3.3-3.3c0,0,0,0,0,0l-8.4,0c-1.8,0-3.3,1.5-3.3,3.3l0,9.7
					l-9.7,0c-1.8,0-3.3,1.5-3.3,3.3l0,8.4C976.9,1376.4,978.4,1377.9,980.2,1377.9 M1083.4,1371.4
					C1083.4,1371.4,1083.5,1371.4,1083.4,1371.4c5.4,0,9.8-4.4,9.8-9.8c0-5.4-4.4-9.8-9.8-9.8c0,0,0,0,0,0c-5.4,0-9.8,4.4-9.8,9.8
					C1073.6,1367,1078,1371.4,1083.4,1371.4 M1063.9,1389.6C1063.9,1389.6,1063.9,1389.6,1063.9,1389.6c5.4,0,9.8-4.4,9.8-9.8
					c0-5.4-4.4-9.8-9.8-9.8c0,0,0,0,0,0c-5.4,0-9.8,4.4-9.8,9.8C1054.1,1385.2,1058.5,1389.6,1063.9,1389.6 M1072.8,1308.1l-0.5,0
					l-72.1,0c-16.4,0-31.7,6.4-43.3,18c-11.5,11.6-17.9,26.9-17.9,43.3c0,33.7,27.5,61.1,61.2,61.1h0h0c12.7,0,24.8-3.9,35-11.1
					c10.2,7.1,22.3,11,35,11h0h0c16.3,0,31.7-6.4,43.2-18c11.5-11.6,17.9-26.9,17.9-43.3c0-32.7-25.6-59.5-58.2-61L1072.8,1308.1
					L1072.8,1308.1z"/>
			</g>
		</g>
		<g>
			<g>
				<path class="st0" d="M566.7,1175.8l9.5-34.6c14,6.5,32.9,9.4,52.4,2.3c12.6-4.6,18.5-12.3,16.1-19.1
					c-7-19.5-82.2,25.4-102.1-29.5c-8.7-23.9,3.9-52.7,40.5-65.9c22.9-8.3,45.2-8.6,65.1-1.1l-10.6,33.6c-15.5-5.5-32.9-4.8-47,0.3
					c-10.7,3.9-13.8,9.9-11.7,15.8c6.6,18.2,82.4-24.3,101.6,28.7c10.4,28.7-3.9,55.3-42.2,69.2
					C609.3,1186,585.9,1184.3,566.7,1175.8z"/>
				<path class="st0" d="M678.8,1077.3c-9.1-45.9,19.5-83.9,65.2-93c35.9-7.1,59.1,9.3,72.9,27l-29.9,22.2
					c-7.3-10.8-21.9-18.1-36.2-15.3c-24.3,4.8-37.8,27-32.9,51.3c4.8,24.3,25.7,39.6,50.1,34.8c14.3-2.8,25-15.2,27.6-28l36.1,9
					c-5.8,21.1-21.1,45.7-57,52.8C728.9,1147.3,687.9,1123,678.8,1077.3z"/>
				<path class="st0" d="M945.3,1118.2l-9-21.3l-59.7,4.1l-6,22.3l-44.2,3l46.7-155.2l49-3.3l67.5,147.4L945.3,1118.2z M900.2,1008
					l-15.4,58.3l38.6-2.6L900.2,1008z"/>
				<path class="st0" d="M1080.2,1120.2l-23.3-52l-20-0.9l-2.2,50.9l-39.1-1.7l6.5-151.5l75.9,3.3c33.6,1.5,51.8,24.5,50.5,52.7
					c-1.1,26.4-17.9,39.7-32.2,44.1l28.5,57L1080.2,1120.2z M1087.7,1016.6c0.4-10.2-7.9-16.5-18.2-16.9l-30.9-1.3l-1.4,32.5
					l30.9,1.3C1078.4,1032.6,1087.3,1027.3,1087.7,1016.6z"/>
				<path class="st0" d="M1136.9,1123l19.7-150.4l38.8,5.1l-15.2,116.6l60.4,7.9l-4.4,33.8L1136.9,1123z"/>
				<path class="st0" d="M1248.9,1138l30.7-148.5l108.9,22.5l-6.9,33.4l-70.6-14.6l-4.8,23.2l69,14.3l-6.9,33.4l-69-14.3l-5.2,25.2
					l70.6,14.6l-6.9,33.4L1248.9,1138z"/>
				<path class="st0" d="M1402,1172.2l31.9-113.2l-40.9-11.6l9.3-32.8l119.3,33.7l-9.3,32.8l-40.7-11.5l-31.9,113.2L1402,1172.2z"/>
			</g>
			<g>
				<g>
					<path class="st4" d="M628.5,1143.5c-19.5,7-38.4,4.2-52.4-2.3l-9.5,34.6c19.3,8.5,42.6,10.2,71.5-0.3
						c38.3-13.9,52.5-40.6,42.2-69.2c-3.7-10.1-9.4-16.7-16.3-21c-38.8,11.3-71.8,23.3-98.7,34.4c29.9,11.8,73.9-10,79.2,4.6
						C647,1131.2,641.1,1138.9,628.5,1143.5z"/>
				</g>
				<g>
					<path class="st4" d="M774.6,1138.2c35.9-7.1,51.2-31.8,57-52.8l-36.1-9c-2.6,12.8-13.3,25.1-27.6,28
						c-23.8,4.7-44.3-9.8-49.7-33.2c-13.4,3.2-26.2,6.5-38.6,9.9C690.1,1124.3,730.2,1147,774.6,1138.2z"/>
				</g>
				<g>
					<path class="st4" d="M876.7,1101l59.7-4.1l9,21.3l44.2-3l-34.4-75.2c-13.9,0.5-27.5,1.1-40.8,2l9,21.7l-38.6,2.6l6-22.5
						c-13.9,1.2-27.5,2.5-40.7,4.1l-23.6,78.5l44.2-3L876.7,1101z"/>
				</g>
				<g>
					<path class="st4" d="M1080.2,1120.2l44.8,1.9l-28.5-57c9-2.8,19-9.1,25.4-20c-42.8-4-83.8-5.8-122.8-5.8l-3.3,77.2l39.1,1.7
						l2.2-50.9l20,0.9L1080.2,1120.2z"/>
				</g>
				<g>
					<path class="st4" d="M1240.5,1102.1l-60.4-7.9l5.5-41.7c-13.1-1.8-26-3.4-38.8-4.8l-9.8,75.3l99.2,13L1240.5,1102.1z"/>
				</g>
				<g>
					<path class="st4" d="M1364.7,1127.1l-70.6-14.6l5.2-25.2l69,14.3l2.3-11.3c-36.5-9.8-72.2-18-106.8-24.7l-15,72.4l108.9,22.5
						L1364.7,1127.1z"/>
				</g>
				<g>
					<path class="st4" d="M1458.3,1116.5c-12.5-4.1-25-8-37.3-11.8l-19,67.5l37.6,10.6L1458.3,1116.5z"/>
				</g>
			</g>
			<g>
				<path class="st0" d="M568.7,1170.6l-2,5.1c19.3,8.5,42.6,10.2,71.5-0.3c29.8-10.8,45.1-29.4,45.4-50.6
					C657.8,1187.3,587.8,1182.8,568.7,1170.6z"/>
				<path class="st0" d="M707.9,1124.8c17.8,13.3,41.6,18.4,66.8,13.4c35.9-7.1,51.2-31.8,57-52.8
					C799.3,1154.7,736,1137,707.9,1124.8z"/>
				<polygon class="st0" points="827.6,1122.4 826.4,1126.3 870.7,1123.3 871.7,1119.4 				"/>
				<polygon class="st0" points="945.3,1118.2 989.6,1115.2 988.2,1112.2 944.1,1115.3 				"/>
				<polygon class="st0" points="995.8,1114 995.7,1116.5 1034.8,1118.2 1034.9,1115.6 				"/>
				<polygon class="st0" points="1123.5,1119.1 1079,1117.3 1080.2,1120.2 1125,1122.1 				"/>
				<polygon class="st0" points="1236.4,1133.6 1137.2,1120.4 1136.9,1123 1236.1,1135.9 				"/>
				<polygon class="st0" points="1358.5,1157 1249.6,1134.7 1248.9,1138 1357.8,1160.5 				"/>
				<polygon class="st0" points="1440.6,1179.1 1403,1168.6 1402,1172.2 1439.6,1182.8 				"/>
			</g>
		</g>
		<g>
			<g>
				<path class="st0" d="M568.9,1310.7c-14.5-44.6,9.5-85.6,53.9-100c34.8-11.3,59.8,2.3,75.5,18.3l-27.1,25.5
					c-8.5-9.9-23.9-15.4-37.7-10.9c-23.6,7.7-34.3,31.2-26.7,54.8c7.7,23.6,30.2,36.3,53.8,28.7c13.8-4.5,23.1-18,24.1-31l36.9,4.8
					c-3.3,21.6-15.6,47.8-50.4,59.1C626.9,1374.3,583.3,1355,568.9,1310.7z"/>
				<path class="st0" d="M737.4,1331.9l-26.3-149.4l38.5-6.8l20.4,115.8l60-10.6l5.9,33.6L737.4,1331.9z"/>
				<path class="st0" d="M960.8,1306.8l-8.8-21.4l-59.7,3.5l-6.2,22.2l-44.3,2.6l48-154.8l49-2.9l66.2,148L960.8,1306.8z
					 M916.7,1196.2l-15.9,58.1l38.6-2.3L916.7,1196.2z"/>
				<path class="st0" d="M1001.8,1283.9l22.1-28.3c10.4,11.4,26.7,21.3,47.4,22.3c13.4,0.6,21.8-4.2,22.2-11.4
					c1-20.7-85.7-8.2-82.8-66.6c1.2-25.4,23.9-47.1,62.8-45.2c24.3,1.2,45.1,9.5,60.5,24.1l-22.7,26.9
					c-12.2-11.1-28.5-17.1-43.5-17.8c-11.4-0.6-16.6,3.8-16.9,10.1c-0.9,19.3,85.4,9.4,82.7,65.7c-1.5,30.4-24.9,49.6-65.6,47.6
					C1037.2,1309.7,1016.3,1299.2,1001.8,1283.9z"/>
				<path class="st0" d="M1133.5,1291.4l24.5-26.2c9.3,12.3,24.7,23.6,45.2,26.5c13.3,1.8,22.1-2.2,23.1-9.4
					c2.9-20.5-84.6-15.9-76.5-73.8c3.5-25.2,28-44.8,66.6-39.4c24.1,3.4,44,13.5,58.1,29.4l-25,24.8c-11.2-12.1-26.9-19.6-41.8-21.7
					c-11.3-1.6-16.8,2.2-17.7,8.6c-2.7,19.1,84.2,17,76.4,72.9c-4.2,30.2-29.3,47.1-69.6,41.5
					C1166.5,1320.3,1146.6,1307.9,1133.5,1291.4z"/>
				<path class="st0" d="M1267.4,1333.7l29.9-148.7l38.3,7.7l-29.9,148.7L1267.4,1333.7z"/>
				<path class="st0" d="M1332.1,1271.6c12-45.3,54.4-66.7,99.5-54.7c35.4,9.4,49,34.4,53.5,56.3l-36.6,6.7
					c-1.7-12.9-11.7-25.9-25.8-29.7c-24-6.4-45.8,7.6-52.2,31.5c-6.4,24,5.6,46.9,29.6,53.3c14.1,3.7,29.2-2.6,37.1-13l28.4,24
					c-14.5,16.4-39,31.7-74.4,22.3C1346.2,1356.6,1320.1,1316.7,1332.1,1271.6z"/>
			</g>
			<g>
				<g>
					<path class="st4" d="M671.2,1360c34.8-11.3,47.1-37.5,50.4-59.1l-36.9-4.8c-1,13-10.3,26.5-24.1,31
						c-21.9,7.1-42.9-3.4-51.9-23.8c-13.5,5-25.8,9.9-37,14.6C588.2,1357.1,629.4,1373.5,671.2,1360z"/>
				</g>
				<g>
					<path class="st4" d="M737.4,1331.9l98.5-17.3L830,1281l-60,10.6l-5.7-32.3c-13.2,2.7-25.9,5.5-38.2,8.5L737.4,1331.9z"/>
				</g>
				<g>
					<path class="st4" d="M892.4,1289l59.7-3.5l8.8,21.4l44.3-2.6l-30.7-68.6c-13.9,0.4-27.6,1-41,1.8l6,14.7l-38.6,2.3l4.1-15
						c-14,1.2-27.8,2.5-41.2,4.1l-21.8,70.4l44.3-2.6L892.4,1289z"/>
				</g>
				<g>
					<path class="st4" d="M1133.4,1263.6c0.5-9.5-1.6-17-5.3-23.2c-35.2-3.1-69.2-4.8-101.8-5.2c24.2,18.6,67.9,16.6,67.2,31.3
						c-0.4,7.3-8.8,12.1-22.2,11.4c-20.7-1-37-10.9-47.4-22.3l-22.1,28.3c14.5,15.3,35.4,25.8,66.1,27.3
						C1108.5,1313.2,1132,1294.1,1133.4,1263.6z"/>
				</g>
				<g>
					<path class="st4" d="M1196.9,1324.6c40.3,5.6,65.4-11.3,69.6-41.5c1.3-9.6-0.1-17.5-3.5-24.1c-35.1-6.5-69.1-11.5-102.2-15.2
						c22,22.1,67.6,23.7,65.6,38.6c-1,7.2-9.8,11.3-23.1,9.4c-20.5-2.9-35.9-14.2-45.2-26.5l-24.5,26.2
						C1146.6,1307.9,1166.5,1320.3,1196.9,1324.6z"/>
				</g>
				<g>
					<path class="st4" d="M1319.9,1270.6c-12.9-2.9-25.6-5.6-38.3-8.1l-14.3,71.2l38.3,7.7L1319.9,1270.6z"/>
				</g>
				<g>
					<path class="st4" d="M1391.2,1368.6c35.4,9.4,59.9-5.9,74.4-22.3l-28.4-24c-7.9,10.4-23,16.7-37.1,13
						c-23.6-6.3-35.6-28.7-29.8-52.3c-13-3.4-25.9-6.6-38.6-9.5C1320.8,1317.7,1346.7,1356.7,1391.2,1368.6z"/>
				</g>
			</g>
			<g>
				<path class="st0" d="M603.2,1354.4c19.2,11.2,43.4,13.5,67.9,5.7c34.9-11.2,47.2-37.4,50.5-59
					C697.4,1373.7,632.5,1363.3,603.2,1354.4z"/>
				<path class="st0" d="M1337.2,1327.5c10.2,19.7,29.3,34.8,54.2,41.3c35.4,9.3,59.9-6.1,74.3-22.6
					C1406.3,1394.5,1357.1,1350.8,1337.2,1327.5z"/>
				<polygon class="st0" points="737.4,1331.9 836,1314.6 835.5,1312.1 737,1329.4 				"/>
				<polygon class="st0" points="886.9,1308.6 842.7,1311.2 841.9,1313.8 886.2,1311.2 				"/>
				<polygon class="st0" points="1004.2,1302.1 960,1304.7 960.8,1306.8 1005.1,1304.2 				"/>
				<path class="st0" d="M1131.1,1277.3c-7.3,13.9-21.9,24.3-40.1,28.1c-46.5,9.9-78.7-16.5-87.2-24.1l-2,2.5
					c14.5,15.3,35.4,25.8,66.1,27.3C1102,1312.9,1124,1299.6,1131.1,1277.3z"/>
				<path class="st0" d="M1262.9,1296.3c-8.4,13.2-23.9,22.3-42.4,24.6c-47.2,5.9-77-23.3-84.8-31.5l-2.2,2.4
					c13.1,16.5,33,28.8,63.5,32.9C1230.9,1329.2,1253.9,1317.9,1262.9,1296.3z"/>
				<polygon class="st0" points="1306.2,1339.1 1267.9,1330.9 1267.4,1333.7 1305.7,1341.4 				"/>
			</g>
		</g>
		<path class="st0" d="M1112.2,1369.2c0-10.7-4-20.5-10.6-27.9c10.6,77.7-60.3,58.1-60.3,58.1c7.5,7.2,17.8,11.7,29,11.7
			C1093.5,1411.1,1112.2,1392.4,1112.2,1369.2z"/>
	</g>
</g>
</svg>
