<?xml version="1.0" encoding="utf-8"?>
<!-- Generator: Adobe Illustrator 27.7.0, SVG Export Plug-In . SVG Version: 6.00 Build 0)  -->
<svg version="1.1" id="Layer_1" xmlns="http://www.w3.org/2000/svg" xmlns:xlink="http://www.w3.org/1999/xlink" x="0px" y="0px"
	 viewBox="0 0 2000 2000" style="enable-background:new 0 0 2000 2000;" xml:space="preserve">
<style type="text/css">
	.st0{fill:#C94949;}
	.st1{fill:#EDF1F7;}
	.st2{clip-path:url(#SVGID_00000060742251149010812820000015334541536217342891_);}
</style>
<g>
	<g>
		<path class="st0" d="M1220.9,694.3c-56.4,11.6-134.8,28.3-222.1,28.3s-167.3-16.7-223.7-28.3c-17,30.6-50.2,51.3-88.9,51.3V1162
			h2.7c0,0,0,0.7,0,1.7c0,127.9,310.4,243.6,310.4,243.6s310.4-115.5,310.4-243.3c0-1,0-2,0-2h-2V745.6
			C1270.7,745.6,1238,724.8,1220.9,694.3z"/>
		<path class="st0" d="M999.3,1444.8l-12.5-4.7c-3.3-1.2-81.3-30.5-160.6-76.4c-95.5-55.3-151.8-111.2-167.9-166.6h-7.5V710.5h35.5
			c24.3,0,46.4-12.7,57.8-33.1l12.6-22.7l28.4,5.8c55.5,11.4,131.5,27.1,213.8,27.1c80.9,0,155.1-15.3,209.4-26.5l31.2-6.4
			l12.6,22.7c11.4,20.4,32.7,33.1,55.7,33.1h35.5v440.2c1.3,3.9,2.1,8.3,2.1,13.3c0,66.3-58.1,133.6-172.8,199.8
			c-79.3,45.8-157.4,75.1-160.6,76.3L999.3,1444.8z M724.4,1163.6c0,38.2,50.2,89,137.7,139.7c56.2,32.5,112.8,56.5,137.3,66.4
			c24.6-9.9,81.7-34.1,138-66.7c76.8-44.5,124.7-89.1,134.9-125.1V775.8c-26-7.1-49.4-21.9-67-42.5
			c-55.3,11.2-126.9,24.4-206.4,24.4c-79.7,0-151.9-13-208.1-24.4c-18,20.8-42.1,35.7-69,42.8v386h-32.8v35
			C709.7,1197,724,1179.7,724.4,1163.6z"/>
	</g>
	<g>
		<path class="st1" d="M791.3,733.2c56,11.3,128.1,24.4,207.8,24.4c79.6,0,151.2-13.1,206.6-24.4c17.7,20.7,41.2,35.5,67.4,42.6
			v385.4v13.1c-8.2,36.5-56.7,82.5-135.7,128.4c-56.3,32.6-113.4,56.9-138,66.8c-24.5-9.9-81.1-33.9-137.2-66.5
			c-87.5-50.7-137.7-101.6-137.7-139.7c0-0.2,0-0.4,0-0.6c-0.6,18.5-16.5,33.5-35.5,33.5v-35h33.6V776
			C749.3,768.9,773.3,754.1,791.3,733.2 M1221.3,694.3c-56.4,11.6-135,28.3-222.3,28.3s-167-16.7-223.4-28.3
			c-17,30.6-49.9,51.3-88.6,51.3v415.7h1.9c0,0,0,1.1,0,2.1c0,127.9,310.4,243.8,310.4,243.8s310.4-115.8,310.4-243.6
			c0-1,0-2.3,0-2.3h-1.2V745.6C1271.5,745.6,1238.4,724.8,1221.3,694.3L1221.3,694.3z"/>
	</g>
	<g>
		<path class="st1" d="M791.3,733.2c56,11.3,128.1,24.4,207.8,24.4c79.6,0,151.2-13.1,206.6-24.4c17.7,20.7,41.2,35.5,67.4,42.6
			v385.4v13.1c-8.2,36.5-56.7,82.5-135.7,128.4c-56.3,32.7-113.4,56.9-138,66.8c-24.6-9.9-81.6-33.9-138.2-66.5
			c-88.1-50.7-138.6-101.6-138.6-139.6v-0.2l0-0.2l0-1.9V776C749.3,768.9,773.3,754.1,791.3,733.2 M1221.3,694.3
			c-56.4,11.6-135,28.3-222.3,28.3s-167-16.7-223.4-28.3c-17,30.6-49.9,51.3-88.6,51.3v415.7l0,2.1c0,127.9,312.3,243.8,312.3,243.8
			s310.4-115.8,310.4-243.6c0-1,0-2.3,0-2.3h-1.2V745.6C1271.5,745.6,1238.4,724.8,1221.3,694.3L1221.3,694.3z"/>
	</g>
	<g id="XMLID_3_">
		<g>
			<path class="st1" d="M800.5,761.9c56.2,11,123.4,22,198.6,22c74.7,0,141.5-11,197.4-22c14.4,13.8,31.5,24.9,50,32.6v366.7v9.7
				c-3.7,12.1-23.1,51.3-122.2,108.9c-48.4,28.1-97.8,50-124.9,61.3c-27.3-11.3-77.1-33.2-125.8-61.4c-42.3-24.5-76.2-49.4-98-72
				c-23.8-24.7-26.3-39.2-26.3-44.3v-0.3v-0.3l0-0.3l0-0.1l0-1.5V794.8C768.1,787.1,785.7,775.9,800.5,761.9 M797.6,752.4
				c-16.1,16.2-35.7,28.7-57.3,36.5v372.1l0,1.8l0,0.3v0.3c0,23.9,33.8,69,128.7,123.9c51.2,29.6,103.3,52.3,130.3,63.3
				c26.8-11,78.5-33.6,129.4-63.2c83.9-48.7,119.7-89.8,126.6-115.2v-10.9V788.5c-21-7.8-40.2-20.1-56-36.1
				c-54.7,10.9-123.7,22.7-200.3,22.7C922.3,775.1,852.8,763.3,797.6,752.4L797.6,752.4z"/>
		</g>
	</g>
	<g>
		<rect x="670.3" y="901.8" class="st0" width="660.2" height="126.1"/>
	</g>
	<g>
		<path class="st1" d="M686.6,943.3c0-0.5,0.4-1,1-1h15.5c6.2,0,11.3,5,11.3,11.1c0,4.7-3.2,8.5-7.7,10.3l7.1,13
			c0.4,0.7,0,1.5-0.9,1.5h-6.9c-0.4,0-0.7-0.3-0.8-0.5l-6.9-13.6h-3.6v13.1c0,0.5-0.5,1-1,1h-6.2c-0.6,0-1-0.5-1-1V943.3z
			 M702.5,957.7c2.1,0,3.9-1.9,3.9-4.1s-1.8-3.9-3.9-3.9h-7.7v8H702.5z"/>
		<path class="st1" d="M726.1,943.3c0-0.5,0.5-1,1-1h6.4c0.6,0,1,0.5,1,1v20.7c0,3.6,2.7,6.4,6.4,6.4c3.7,0,6.5-2.9,6.5-6.4v-20.7
			c0-0.5,0.4-1,1-1h6.4c0.5,0,1,0.5,1,1v21.1c0,7.8-6.6,14.2-14.8,14.2c-8.1,0-14.7-6.4-14.7-14.2V943.3z"/>
		<path class="st1" d="M773.9,949.9h-7.4c-0.6,0-1-0.5-1-1v-5.6c0-0.5,0.4-1,1-1h23c0.6,0,1,0.5,1,1v5.6c0,0.5-0.4,1-1,1h-7.4v27.3
			c0,0.5-0.5,1-1,1h-6.2c-0.5,0-1-0.5-1-1V949.9z"/>
		<path class="st1" d="M816.7,941.9c4.4,0,9.1,1.8,12.7,4.8c0.5,0.4,0.5,1,0.1,1.4l-4.1,4.3c-0.4,0.4-1,0.4-1.4,0
			c-2-1.8-4.3-2.5-6.8-2.5c-5.7,0-10.2,4.7-10.2,10.3c0,5.6,4.6,10.2,10.3,10.2c1.5,0,3.1-0.2,4.6-0.8v-3h-3.3c-0.6,0-1-0.4-1-0.9
			v-5.1c0-0.6,0.4-1,1-1H829c0.5,0,0.9,0.5,0.9,1l0.1,13.8c0,0.3-0.2,0.7-0.4,0.8c0,0-5.3,3.3-12.9,3.3c-10.3,0-18.6-8.1-18.6-18.3
			C798.1,950.1,806.4,941.9,816.7,941.9z"/>
		<path class="st1" d="M842.3,943.3c0-0.5,0.4-1,1-1h21.5c0.6,0,1,0.5,1,1v5.6c0,0.5-0.4,1-1,1h-14.4v6.3h11.8c0.5,0,1,0.5,1,1v5.6
			c0,0.6-0.5,1-1,1h-11.8v6.9h14.4c0.6,0,1,0.5,1,1v5.6c0,0.5-0.4,1-1,1h-21.5c-0.6,0-1-0.5-1-1V943.3z"/>
		<path class="st1" d="M877.9,943.3c0-0.5,0.4-1,1-1h15.5c6.2,0,11.3,5,11.3,11.1c0,4.7-3.2,8.5-7.7,10.3l7.1,13
			c0.4,0.7,0,1.5-0.9,1.5h-6.9c-0.4,0-0.7-0.3-0.8-0.5l-6.9-13.6H886v13.1c0,0.5-0.5,1-1,1h-6.2c-0.6,0-1-0.5-1-1V943.3z
			 M893.7,957.7c2.1,0,3.9-1.9,3.9-4.1s-1.8-3.9-3.9-3.9H886v8H893.7z"/>
		<path class="st1" d="M915.8,973.3l2.4-4.2c0.4-0.7,1.4-0.6,1.8-0.3c0.2,0.1,3.9,2.8,7.4,2.8c2.1,0,3.6-1.3,3.6-3.1
			c0-2.2-1.8-3.8-5.3-5.2c-4.5-1.7-10.1-5.2-10.1-11.3c0-5.1,4-10.2,12-10.2c5.4,0,9.5,2.7,11.1,3.8c0.6,0.4,0.5,1.3,0.3,1.6
			l-2.6,3.9c-0.4,0.6-1.3,1-1.8,0.7c-0.5-0.3-4.3-3.1-7.4-3.1c-1.9,0-3.3,1.2-3.3,2.6c0,1.9,1.6,3.3,5.7,5c4,1.6,10.5,4.7,10.5,11.7
			c0,5.3-4.6,10.6-12.2,10.6c-6.7,0-10.5-2.8-11.7-3.9C915.5,974.2,915.3,974,915.8,973.3z"/>
		<path class="st1" d="M967.6,943.3c0-0.5,0.5-1,1-1h6.4c0.6,0,1,0.5,1,1v20.7c0,3.6,2.7,6.4,6.4,6.4c3.7,0,6.5-2.9,6.5-6.4v-20.7
			c0-0.5,0.4-1,1-1h6.4c0.5,0,1,0.5,1,1v21.1c0,7.8-6.6,14.2-14.8,14.2c-8.1,0-14.7-6.4-14.7-14.2V943.3z"/>
		<path class="st1" d="M1010.7,942.8c0-0.5,0.5-0.9,1-0.9h1.3l20.7,19.7h0.1v-18.2c0-0.5,0.4-1,1-1h6.2c0.5,0,1,0.5,1,1v34.4
			c0,0.5-0.5,0.9-1,0.9h-0.8c-0.2,0-0.6-0.2-0.7-0.3l-20.5-20.3h-0.1v19.1c0,0.5-0.4,1-1,1h-6.2c-0.5,0-1-0.5-1-1L1010.7,942.8z"/>
		<path class="st1" d="M1056,943.3c0-0.5,0.5-1,1-1h6.2c0.5,0,1,0.5,1,1v33.9c0,0.5-0.5,1-1,1h-6.2c-0.5,0-1-0.5-1-1V943.3z"/>
		<path class="st1" d="M1073.7,943.7c-0.3-0.7,0.1-1.3,0.9-1.3h6.9c0.4,0,0.8,0.3,0.9,0.6l8.6,18.7h0.3l8.6-18.7
			c0.1-0.3,0.5-0.6,0.9-0.6h6.9c0.8,0,1.2,0.7,0.9,1.3l-16.3,34.4c-0.2,0.3-0.5,0.6-0.9,0.6h-0.5c-0.4,0-0.7-0.3-0.9-0.6
			L1073.7,943.7z"/>
		<path class="st1" d="M1117.9,943.3c0-0.5,0.4-1,1-1h21.5c0.6,0,1,0.5,1,1v5.6c0,0.5-0.4,1-1,1H1126v6.3h11.8c0.5,0,1,0.5,1,1v5.6
			c0,0.6-0.5,1-1,1H1126v6.9h14.4c0.6,0,1,0.5,1,1v5.6c0,0.5-0.4,1-1,1h-21.5c-0.6,0-1-0.5-1-1V943.3z"/>
		<path class="st1" d="M1153.5,943.3c0-0.5,0.4-1,1-1h15.5c6.2,0,11.3,5,11.3,11.1c0,4.7-3.2,8.5-7.7,10.3l7.1,13
			c0.4,0.7,0,1.5-0.9,1.5h-6.9c-0.4,0-0.7-0.3-0.8-0.5l-6.9-13.6h-3.6v13.1c0,0.5-0.5,1-1,1h-6.2c-0.6,0-1-0.5-1-1V943.3z
			 M1169.3,957.7c2.1,0,3.9-1.9,3.9-4.1s-1.8-3.9-3.9-3.9h-7.7v8H1169.3z"/>
		<path class="st1" d="M1191.4,973.3l2.4-4.2c0.4-0.7,1.4-0.6,1.8-0.3c0.2,0.1,3.9,2.8,7.4,2.8c2.1,0,3.6-1.3,3.6-3.1
			c0-2.2-1.8-3.8-5.3-5.2c-4.5-1.7-10.1-5.2-10.1-11.3c0-5.1,4-10.2,12-10.2c5.4,0,9.5,2.7,11.1,3.8c0.6,0.4,0.5,1.3,0.3,1.6
			l-2.6,3.9c-0.4,0.6-1.3,1-1.8,0.7c-0.5-0.3-4.3-3.1-7.4-3.1c-1.9,0-3.3,1.2-3.3,2.6c0,1.9,1.6,3.3,5.7,5c4,1.6,10.5,4.7,10.5,11.7
			c0,5.3-4.6,10.6-12.2,10.6c-6.7,0-10.5-2.8-11.7-3.9C1191.1,974.2,1190.9,974,1191.4,973.3z"/>
		<path class="st1" d="M1227.1,943.3c0-0.5,0.5-1,1-1h6.2c0.5,0,1,0.5,1,1v33.9c0,0.5-0.5,1-1,1h-6.2c-0.5,0-1-0.5-1-1V943.3z"/>
		<path class="st1" d="M1254,949.9h-7.4c-0.6,0-1-0.5-1-1v-5.6c0-0.5,0.4-1,1-1h23c0.6,0,1,0.5,1,1v5.6c0,0.5-0.4,1-1,1h-7.4v27.3
			c0,0.5-0.5,1-1,1h-6.2c-0.5,0-1-0.5-1-1V949.9z"/>
		<path class="st1" d="M1289.5,960.9l-11.5-17.1c-0.4-0.7,0-1.5,0.8-1.5h6.7c0.4,0,0.7,0.3,0.8,0.5l7.2,10.5l7.2-10.5
			c0.2-0.2,0.4-0.5,0.8-0.5h6.7c0.8,0,1.2,0.8,0.8,1.5l-11.6,17v16.3c0,0.5-0.5,1-1,1h-6.2c-0.6,0-1-0.5-1-1V960.9z"/>
	</g>
	<g>
		<polygon class="st1" points="999.2,1230.9 1007.6,1244.3 1023.2,1248.1 1012.8,1260.1 1014,1275.9 999.2,1269.8 984.4,1275.9 
			985.6,1260.1 975.3,1248.1 990.8,1244.3 		"/>
	</g>
	<g>
		<g>
			<g>
				<path class="st0" d="M950.9,578.9h95.2c2.3,0,4.1,1.8,4.1,4.1v297.9c0,2.3-1.8,4.1-4.1,4.1h-95.2c-2.3,0-4.1-1.8-4.1-4.1V583
					C946.8,580.7,948.6,578.9,950.9,578.9z"/>
				<path class="st0" d="M1033,908.6h-69.1c-22.7,0-41.1-18.2-41.1-40.6V595.8c0-22.4,18.4-40.6,41.1-40.6h69.1
					c22.7,0,41.1,18.2,41.1,40.6v272.3C1074.2,890.4,1055.7,908.6,1033,908.6z M970.7,861.3h55.5V602.5h-55.5V861.3z"/>
			</g>
			<g>
				<polygon class="st0" points="1015.1,820.8 998.5,849.2 981.9,820.8 				"/>
				<polygon class="st0" points="998.5,896.5 940.3,797.1 1056.6,797.1 				"/>
			</g>
			<g>
				<path class="st0" d="M1153.6,685v93.8c0,2.3-1.8,4.1-4.1,4.1h-302c-2.3,0-4.1-1.8-4.1-4.1V685c0-2.3,1.8-4.1,4.1-4.1h302
					C1151.8,680.9,1153.6,682.8,1153.6,685z"/>
				<path class="st0" d="M1136.5,806.6h-276c-22.7,0-41.1-18.2-41.1-40.6v-68.2c0-22.4,18.4-40.6,41.1-40.6h276
					c22.7,0,41.1,18.2,41.1,40.6V766C1177.6,788.4,1159.1,806.6,1136.5,806.6z M867.3,759.3h262.3v-54.7H867.3V759.3z"/>
			</g>
			<g>
				<polygon class="st0" points="908.4,748.3 879.6,731.9 908.4,715.5 				"/>
				<polygon class="st0" points="932.4,789.3 831.7,731.9 932.4,674.6 				"/>
			</g>
			<g>
				<polygon class="st0" points="981.9,643.1 998.5,614.7 1015.1,643.1 				"/>
				<polygon class="st0" points="1056.6,666.7 940.3,666.7 998.5,567.4 				"/>
			</g>
			<g>
				<polygon class="st0" points="1088.5,715.5 1117.3,731.9 1088.5,748.3 				"/>
				<polygon class="st0" points="1064.6,789.3 1064.6,674.6 1165.3,731.9 				"/>
			</g>
		</g>
		<g>
			<g>
				<path class="st0" d="M1033,578.9c9.5,0,17.1,7.6,17.1,16.9v272.3c0,9.3-7.7,16.9-17.1,16.9h-69.1c-9.5,0-17.1-7.6-17.1-16.9
					V595.8c0-9.3,7.7-16.9,17.1-16.9H1033 M1033,555.2h-69.1c-22.7,0-41.1,18.2-41.1,40.6v272.3c0,22.4,18.4,40.6,41.1,40.6h69.1
					c22.7,0,41.1-18.2,41.1-40.6V595.8C1074.2,573.4,1055.7,555.2,1033,555.2L1033,555.2z"/>
			</g>
			<g>
				<path class="st0" d="M1015.1,820.8l-16.6,28.4l-16.6-28.4H1015.1 M1056.6,797.1h-41.5h-33.2h-41.5l20.8,35.5l16.6,28.4
					l20.8,35.5l20.8-35.5l16.6-28.4L1056.6,797.1L1056.6,797.1z"/>
			</g>
			<g>
				<path class="st0" d="M1136.5,680.9c9.5,0,17.1,7.6,17.1,16.9V766c0,9.3-7.7,16.9-17.1,16.9h-276c-9.5,0-17.1-7.6-17.1-16.9
					v-68.2c0-9.3,7.7-16.9,17.1-16.9H1136.5 M1136.5,657.3h-276c-22.7,0-41.1,18.2-41.1,40.6V766c0,22.4,18.4,40.6,41.1,40.6h276
					c22.7,0,41.1-18.2,41.1-40.6v-68.2C1177.6,675.5,1159.1,657.3,1136.5,657.3L1136.5,657.3z"/>
			</g>
			<g>
				<path class="st0" d="M908.4,715.5v32.8l-28.8-16.4L908.4,715.5 M932.4,674.6l-36,20.5l-28.8,16.4l-36,20.5l36,20.5l28.8,16.4
					l36,20.5v-41v-32.8V674.6L932.4,674.6z"/>
			</g>
			<g>
				<path class="st0" d="M998.5,614.7l16.6,28.4h-33.2L998.5,614.7 M998.5,567.4l-20.8,35.5l-16.6,28.4l-20.8,35.5h41.5h33.2h41.5
					l-20.8-35.5l-16.6-28.4L998.5,567.4L998.5,567.4z"/>
			</g>
			<g>
				<path class="st0" d="M1088.5,715.5l28.8,16.4l-28.8,16.4V715.5 M1064.6,674.6v41v32.8v41l36-20.5l28.8-16.4l36-20.5l-36-20.5
					l-28.8-16.4L1064.6,674.6L1064.6,674.6z"/>
			</g>
		</g>
		<g>
			<g>
				<path class="st1" d="M948.8,578.9h99.4c1.1,0,2,0.9,2,2V883c0,1.1-0.9,2-2,2h-99.4c-1.1,0-2-0.9-2-2V580.9
					C946.8,579.8,947.7,578.9,948.8,578.9z"/>
			</g>
			<g>
				<polygon class="st0" points="1015.1,820.8 998.5,849.2 981.9,820.8 				"/>
			</g>
			<g>
				<path class="st1" d="M1153.6,682.9v98c0,1.1-0.9,2-2,2H845.4c-1.1,0-2-0.9-2-2v-98c0-1.1,0.9-2,2-2h306.3
					C1152.7,680.9,1153.6,681.8,1153.6,682.9z"/>
			</g>
			<g>
				<polygon class="st0" points="908.4,748.3 879.6,731.9 908.4,715.5 				"/>
			</g>
			<g>
				<polygon class="st0" points="981.9,643.1 998.5,614.7 1015.1,643.1 				"/>
			</g>
			<g>
				<polygon class="st0" points="1088.5,715.5 1117.3,731.9 1088.5,748.3 				"/>
			</g>
		</g>
		<g>
			<ellipse class="st0" cx="998.6" cy="731.4" rx="33" ry="32.6"/>
		</g>
	</g>
	<g>
		<defs>
			<path id="SVGID_1_" d="M1340.7,1150.7V709.1h-33c-23,0-44.3-12-55.7-32.4l-12.6-22.3l-31.2,6.6c-54.2,11.2-128.5,26.6-209.4,26.6
				c-82.3,0-158.3-15.6-213.8-27l-28.4-5.8l-12.6,22c-11.4,20.4-33.5,32.4-57.8,32.4h-37.1v483.8h9.1
				c16.1,49.6,72.4,113.4,167.9,168.7c79.3,45.9,157.3,76.2,160.6,77.5l12.5,5.2l12.5-4.4c3.3-1.2,81.3-30.3,160.6-76.1
				c114.6-66.3,171.5-133.4,171.5-199.8C1344,1158.9,1353.3,1154.6,1340.7,1150.7z"/>
		</defs>
		<clipPath id="SVGID_00000121964777934951828900000007636003909113144466_">
			<use xlink:href="#SVGID_1_"  style="overflow:visible;"/>
		</clipPath>
		<g style="clip-path:url(#SVGID_00000121964777934951828900000007636003909113144466_);">
			<g>
				<path class="st0" d="M475,1172.7c24.3,16.7,48.3,33.6,71.9,50.7c-18,22.9-35.5,45.9-52.7,69c50.2-7.8,100.5-14.5,150.9-20
					c-4.5-40.2-9-80.3-13.5-120.5C579.3,1157.7,527.1,1164.6,475,1172.7z"/>
			</g>
			<g>
				<path class="st0" d="M580.1,1240c21.9,10.6,43.6,21.5,65.1,32.5c-1.9-16.8-3.7-33.5-5.6-50.3
					C639.5,1222,579.1,1240.9,580.1,1240z"/>
			</g>
			<g>
				<path class="st0" d="M1525,1172.7c-24.3,16.7-48.3,33.6-71.9,50.7c18,22.9,35.5,45.9,52.7,69c-50.2-7.8-100.5-14.5-150.9-20
					c4.5-40.2,9-80.3,13.5-120.5C1420.7,1157.7,1472.9,1164.6,1525,1172.7z"/>
			</g>
			<g>
				<path class="st0" d="M1419.9,1240c-21.9,10.6-43.6,21.5-65.1,32.5c1.9-16.8,3.7-33.5,5.6-50.3
					C1360.5,1222.1,1420.9,1240.9,1419.9,1240z"/>
			</g>
			<g>
				<path class="st0" d="M1419.9,1240c-279.1-35.6-561.7-35.6-840.7,0.1c-7.7-58.4-15.4-116.9-23-175.3
					c294.3-37.6,592.4-37.7,886.7-0.1C1435.2,1123.1,1427.5,1181.6,1419.9,1240z"/>
			</g>
		</g>
	</g>
	<g>
		<g>
			<path class="st1" d="M475,1148.2c24.3,16.7,48.3,33.6,71.9,50.7c-18,22.9-35.5,45.9-52.7,69c50.2-7.8,100.5-14.5,150.9-20
				c-4.5-40.2-9-80.3-13.5-120.5C579.3,1133.2,527.1,1140.1,475,1148.2z"/>
		</g>
		<g>
			<path class="st0" d="M580.1,1215.5c21.9,10.6,43.6,21.5,65.1,32.5c-1.9-16.8-3.7-33.5-5.6-50.3
				C639.5,1197.5,579.1,1216.4,580.1,1215.5z"/>
		</g>
		<g>
			<path class="st1" d="M1525,1148.2c-24.3,16.7-48.3,33.6-71.9,50.7c18,22.9,35.5,45.9,52.7,69c-50.2-7.8-100.5-14.5-150.9-20
				c4.5-40.2,9-80.3,13.5-120.5C1420.7,1133.2,1472.9,1140.1,1525,1148.2z"/>
		</g>
		<g>
			<path class="st0" d="M1419.9,1215.5c-21.9,10.6-43.6,21.5-65.1,32.5c1.9-16.8,3.7-33.5,5.6-50.3
				C1360.5,1197.5,1420.9,1216.4,1419.9,1215.5z"/>
		</g>
		<g>
			<path class="st1" d="M1419.9,1215.5c-279.1-35.6-561.7-35.6-840.7,0.1c-7.7-58.4-15.4-116.9-23-175.3
				c294.3-37.6,592.4-37.7,886.7-0.1C1435.2,1098.6,1427.5,1157.1,1419.9,1215.5z"/>
		</g>
	</g>
	<g>
		<g>
			<path class="st0" d="M723.9,1154.1c-3.2-35.2-6.5-70.4-9.7-105.6c26.4-2.3,52.9-4.3,79.4-6.1c0.5,7.7,0.8,11.6,1.3,19.4
				c-18.4,1.2-36.8,2.6-55.2,4c0.8,9.2,1.2,13.8,1.9,23c17.9-1.4,35.7-2.7,53.6-3.9c0.5,7.7,0.8,11.6,1.3,19.4
				c-17.8,1.2-35.5,2.5-53.3,3.9c0.8,9.8,1.2,14.7,2.1,24.6c18-1.4,36-2.7,54-3.9c0.5,7.8,0.8,11.7,1.3,19.5
				C775,1150,749.5,1151.9,723.9,1154.1z"/>
			<path class="st0" d="M820.5,1122.8c7.2,5.7,18.8,9.5,27.9,9c9-0.4,13.1-3.6,12.9-8.4c-0.2-5.4-7.3-7.2-16.3-8.3
				c-12.5-1.6-32.7-5.6-32.7-22.3c0-16.6,16.8-25.3,31.6-25.9c11.5-0.5,23.3,2.3,32.8,9.1c-3.1,5.7-4.7,8.5-7.7,14.1
				c-5-4.7-14.3-8.3-24.1-7.8c-7.6,0.4-12.5,3.3-12.2,7.8c0.3,4.8,6.7,6.3,15.7,7.5c13.9,1.9,32.6,6.1,33,23.7
				c0.5,17.1-18.5,25.7-33,26.1c-12.2,0.3-25.7-2.3-35.8-10C815.6,1131.6,817.2,1128.7,820.5,1122.8z"/>
			<path class="st0" d="M920.4,1172.2c-8.2,0.2-12.3,0.3-20.5,0.6c-1.2-35.3-2.3-70.7-3.5-106c8.5-0.3,12.7-0.4,21.2-0.6
				c0.1,3.9,0.2,5.8,0.3,9.7c5.1-7.1,16.1-12.2,24.6-12.1c22.1,0,35.9,18.8,36,39.8c0.1,20.6-12.2,40.5-34.6,40.8
				c-9.2,0.1-18-3.5-24.5-11.2C919.8,1146.1,920.1,1159.2,920.4,1172.2z M936.2,1081.8c-6.8,0.2-14.5,4.1-17.9,9.1
				c0.3,10.9,0.4,16.3,0.7,27.2c3.6,4.7,11.4,8.4,18.1,8.3c12.3-0.2,19.8-11.3,19.7-22.7C956.6,1092.2,948.6,1081.5,936.2,1081.8z"
				/>
			<path class="st0" d="M990.8,1103.5c-0.1-23.6,19.6-40.3,42.5-40c23,0.3,42.4,17.3,41.7,41c-0.6,23.3-19.9,39.9-42.7,39.6
				C1009.6,1143.8,990.8,1126.7,990.8,1103.5z M1053.2,1104c0.2-11.7-7.8-22.4-20.2-22.6c-12.3-0.1-20.5,10.5-20.5,22.1
				c-0.1,11.5,7.7,22.4,20,22.6C1044.9,1126.2,1053,1115.6,1053.2,1104z"/>
			<path class="st0" d="M1090.9,1143.4c0.8-25.6,1.6-51.2,2.4-76.7c8.5,0.3,12.7,0.4,21.2,0.7c-0.2,4.2-0.2,6.3-0.4,10.5
				c5.9-6.8,17.2-11.7,26.2-11.2c-0.4,7.9-0.6,11.8-0.9,19.7c-1.5-0.4-3.5-0.6-5.8-0.7c-7-0.3-16.4,3-20.1,7.8
				c-0.6,16.9-1.3,33.8-1.9,50.7C1103.4,1143.8,1099.2,1143.7,1090.9,1143.4z"/>
			<path class="st0" d="M1156.2,1127c0.7-13.3,1.4-26.7,2.1-40c-5.3-0.3-8-0.4-13.3-0.7c0.3-7.1,0.5-10.6,0.9-17.6
				c5.3,0.3,8,0.4,13.3,0.7c0.4-8.4,0.7-12.6,1.1-21c8.6,0.4,12.9,0.7,21.5,1.2c-0.5,8.4-0.8,12.6-1.3,21c6.5,0.4,9.8,0.6,16.3,1
				c-0.5,7-0.7,10.6-1.2,17.6c-6.5-0.4-9.7-0.6-16.2-1c-0.7,11.5-1.4,23.1-2.1,34.6c-0.3,4.8,2.1,8.6,6.7,8.8
				c3.1,0.2,6.1-0.7,7.3-1.8c1.4,6.2,2.1,9.3,3.4,15.5c-3.3,2.5-9.3,4-17.6,3.9C1164.9,1148.9,1155.6,1139.6,1156.2,1127z"/>
			<path class="st0" d="M1211.6,1125.3c6.4,6.6,17.4,11.8,26.5,12.5c9,0.7,13.5-1.9,13.9-6.7c0.5-5.4-6.3-8-15.1-10.3
				c-12.2-3.2-31.7-9.7-29.5-26.2c2.1-16.4,20-22.9,34.7-21.7c11.4,1,22.8,5.3,31.4,13.2c-3.8,5.2-5.7,7.8-9.5,13.1
				c-4.4-5.3-13.1-10.1-22.9-10.8c-7.6-0.6-12.8,1.7-13.1,6.2c-0.4,4.8,5.9,7.1,14.6,9.4c13.5,3.6,31.5,10.2,29.7,27.7
				c-1.8,17.1-21.7,23.2-36.2,21.7c-12.2-1.2-25.2-5.5-34.3-14.4C1205.6,1133.4,1207.6,1130.7,1211.6,1125.3z"/>
		</g>
	</g>
</g>
</svg>
